<svg xmlns="http://www.w3.org/2000/svg" width="20" height="20" viewBox="0 0 22 23" fill="none">
  <path d="M3.82556 4.24322H4.78479" stroke="#E55B10" stroke-width="1.3" stroke-linecap="round" stroke-linejoin="round"/>
  <path d="M7.37891 4.24323H16.1627" stroke="#E55B10" stroke-width="1.3" stroke-linecap="round" stroke-linejoin="round"/>
  <path d="M7.13916 18.2003C7.13916 17.2885 7.13916 16.8566 7.42693 16.5687C7.7147 16.2808 8.14635 16.2808 9.05763 16.2808H12.8946C13.8058 16.2808 14.2375 16.2808 14.5253 16.5687C14.813 16.8566 14.813 17.2885 14.813 18.2003V19.1601C14.813 20.5038 14.813 21.1757 14.3814 21.6076C13.9497 22.0395 13.2782 22.0395 11.9353 22.0395H10.0169C8.67393 22.0395 8.00247 22.0395 7.57081 21.6076C7.13916 21.1757 7.13916 20.5038 7.13916 19.1601V18.2003Z" stroke="#FFE5D6" stroke-width="1.8" stroke-linecap="round"/>
  <path d="M12.8944 15.801V15.3211C12.8944 14.2653 12.0311 13.4015 10.976 13.4015C9.9208 13.4015 9.0575 14.2653 9.0575 15.3211V15.801" stroke="#FFE5D6" stroke-width="1.8" stroke-linecap="round"/>
  <path d="M4.06954 20.9635C2.34293 20.7715 1 19.3318 1 17.5562V4.45521C1 2.53565 2.53477 1 4.45324 1H17.5468C19.4652 1 21 2.53565 21 4.45521V17.5562C21 19.3318 19.6571 20.7715 17.9305 20.9635" stroke="#E55B10" stroke-width="1.8" stroke-miterlimit="10" stroke-linecap="round"/>
  <path d="M1.19519 6.99864H20.7577" stroke="#E55B10" stroke-width="1.8" stroke-miterlimit="10" stroke-linecap="round"/>
</svg>