<svg xmlns="http://www.w3.org/2000/svg" width="59" height="59" viewBox="0 0 59 59" fill="none">
<path d="M4 0.5H55C56.933 0.5 58.5 2.067 58.5 4V55C58.5 56.933 56.933 58.5 55 58.5H4C2.067 58.5 0.5 56.933 0.5 55V4C0.5 2.067 2.067 0.5 4 0.5Z" fill="#93003F" stroke="#FFE5D6"/>
<path d="M18.5266 18.2533H20.0247" stroke="white" stroke-width="2" stroke-linecap="round" stroke-linejoin="round"/>
<path d="M24.0759 18.2533H37.7941" stroke="white" stroke-width="2" stroke-linecap="round" stroke-linejoin="round"/>
<path d="M23.7017 40.051C23.7017 38.627 23.7017 37.9525 24.1511 37.5028C24.6005 37.0531 25.2747 37.0531 26.6979 37.0531H32.6902C34.1134 37.0531 34.7876 37.0531 35.237 37.5028C35.6864 37.9525 35.6864 38.627 35.6864 40.051V41.55C35.6864 43.6485 35.6864 44.6978 35.0123 45.3723C34.3381 46.0468 33.2895 46.0468 31.1921 46.0468H28.1959C26.0986 46.0468 25.0499 46.0468 24.3758 45.3723C23.7017 44.6978 23.7017 43.6485 23.7017 41.55V40.051Z" stroke="#FFE5D6" stroke-width="2.5" stroke-linecap="round"/>
<path d="M32.6901 36.3038V35.5544C32.6901 33.9055 31.3419 32.5565 29.6939 32.5565C28.046 32.5565 26.6978 33.9055 26.6978 35.5544V36.3038" stroke="#FFE5D6" stroke-width="2.5" stroke-linecap="round"/>
<path d="M18.9077 44.3664C16.2111 44.0666 14.1138 41.8182 14.1138 39.0451V18.5844C14.1138 15.5865 16.5107 13.1882 19.5069 13.1882H39.9559C42.9521 13.1882 45.3491 15.5865 45.3491 18.5844V39.0451C45.3491 41.8182 43.2517 44.0666 40.5552 44.3664" stroke="white" stroke-width="2.5" stroke-miterlimit="10" stroke-linecap="round"/>
<path d="M14.4186 22.5566H44.9705" stroke="white" stroke-width="2.5" stroke-miterlimit="10" stroke-linecap="round"/>
</svg>