<svg xmlns="http://www.w3.org/2000/svg" width="24" height="24" viewBox="0 0 24 24" fill="none">
<path d="M2 0.15H22C23.0217 0.15 23.85 0.978273 23.85 2V22C23.85 23.0217 23.0217 23.85 22 23.85H2C0.978273 23.85 0.15 23.0217 0.15 22V2C0.15 0.978273 0.978273 0.15 2 0.15Z" fill="#93003F" stroke="#FFE5D6" stroke-width="0.3"/>
<path d="M6.76453 7.0548H7.43142" stroke="white" stroke-width="0.5" stroke-linecap="round" stroke-linejoin="round"/>
<path d="M9.23486 7.05482H15.3416" stroke="white" stroke-width="0.5" stroke-linecap="round" stroke-linejoin="round"/>
<path d="M9.06812 16.7582C9.06812 16.1243 9.06812 15.8241 9.26818 15.6239C9.46825 15.4237 9.76835 15.4237 10.4019 15.4237H13.0695C13.703 15.4237 14.0031 15.4237 14.2032 15.6239C14.4032 15.8241 14.4032 16.1243 14.4032 16.7582V17.4255C14.4032 18.3597 14.4032 18.8268 14.1031 19.1271C13.803 19.4273 13.3362 19.4273 12.4026 19.4273H11.0688C10.1351 19.4273 9.66832 19.4273 9.36822 19.1271C9.06812 18.8268 9.06812 18.3597 9.06812 17.4255V16.7582Z" stroke="#FFE5D6" stroke-linecap="round"/>
<path d="M13.0694 15.0902V14.7565C13.0694 14.0225 12.4692 13.422 11.7356 13.422C11.0021 13.422 10.4019 14.0225 10.4019 14.7565V15.0902" stroke="#FFE5D6" stroke-linecap="round"/>
<path d="M6.9341 18.6793C5.7337 18.5458 4.80005 17.5449 4.80005 16.3104V7.20218C4.80005 5.86764 5.86707 4.8 7.20085 4.8H16.3039C17.6377 4.8 18.7047 5.86764 18.7047 7.20218V16.3104C18.7047 17.5449 17.7711 18.5458 16.5707 18.6793" stroke="white" stroke-miterlimit="10" stroke-linecap="round"/>
<path d="M4.93567 8.97047H18.5361" stroke="white" stroke-miterlimit="10" stroke-linecap="round"/>
</svg>