<svg width="256" height="256" viewBox="0 0 256 256" fill="none" xmlns="http://www.w3.org/2000/svg">
<path d="M8 2H248C251.314 2 254 4.68629 254 8V248C254 251.314 251.314 254 248 254H8C4.68629 254 2 251.314 2 248V8C2 4.68629 4.68629 2 8 2Z" fill="#93003F" stroke="#FFE5D6" stroke-width="4"/>
<path d="M80.3867 79.2007H86.8869" stroke="white" stroke-width="8" stroke-linecap="round" stroke-linejoin="round"/>
<path d="M104.465 79.2007H163.988" stroke="white" stroke-width="8" stroke-linecap="round" stroke-linejoin="round"/>
<path d="M102.841 173.781C102.841 167.602 102.841 164.675 104.791 162.724C106.741 160.773 109.666 160.773 115.841 160.773H141.842C148.017 160.773 150.943 160.773 152.893 162.724C154.843 164.675 154.843 167.602 154.843 173.781V180.285C154.843 189.39 154.843 193.943 151.918 196.87C148.992 199.796 144.442 199.796 135.342 199.796H122.342C113.241 199.796 108.691 199.796 105.766 196.87C102.841 193.943 102.841 189.39 102.841 180.285V173.781Z" stroke="#FFE5D6" stroke-width="8" stroke-linecap="round"/>
<path d="M141.842 157.522V154.27C141.842 147.115 135.992 141.262 128.841 141.262C121.691 141.262 115.841 147.115 115.841 154.27V157.522" stroke="#FFE5D6" stroke-width="8" stroke-linecap="round"/>
<path d="M82.0401 192.505C70.3397 191.204 61.2394 181.448 61.2394 169.416V80.6374C61.2394 67.6295 71.6397 57.2232 84.6401 57.2232H173.368C186.368 57.2232 196.769 67.6295 196.769 80.6374V169.416C196.769 181.448 187.669 191.204 175.968 192.505" stroke="white" stroke-width="8" stroke-miterlimit="10" stroke-linecap="round"/>
<path d="M62.562 97.8729H195.126" stroke="white" stroke-width="8" stroke-miterlimit="10" stroke-linecap="round"/>
</svg>